<?xml version="1.0" encoding="UTF-8"?>
<svg version="1.1" xmlns="http://www.w3.org/2000/svg" width="500" height="500">
<path d="M0 0 C0.721875 -0.02835938 1.44375 -0.05671875 2.1875 -0.0859375 C13.44941819 -0.12531484 23.33588727 6.43541699 32.6875 12.0625 C34.80289172 13.31593774 36.91878611 14.56852748 39.03515625 15.8203125 C40.08203613 16.44196289 41.12891602 17.06361328 42.20751953 17.70410156 C46.6536694 20.32855016 51.13635255 22.88663873 55.625 25.4375 C72.87982507 35.26843081 90.06807639 45.21368294 107.21459961 55.23217773 C114.5053927 59.48937029 121.81096643 63.72036998 129.125 67.9375 C130.1972583 68.5557666 131.2695166 69.1740332 132.37426758 69.81103516 C137.96262578 73.03198366 143.55296154 76.24947407 149.14453125 79.46484375 C154.58375094 82.59358814 160.01725859 85.73202817 165.44628906 88.87841797 C167.92633692 90.31280302 170.41179686 91.73725134 172.8984375 93.16015625 C185.25589942 100.29471299 194.09597842 107.12200433 198.80916119 121.16616726 C199.4623336 124.62410951 199.39801397 128.06963687 199.39717102 131.57569885 C199.40084771 132.3962329 199.4045244 133.21676696 199.4083125 134.06216568 C199.41933807 136.81562004 199.4231913 139.56903664 199.42700195 142.32250977 C199.43326755 144.29537577 199.43991443 146.26824059 199.44691467 148.24110413 C199.46794929 154.72452982 199.47831776 161.20795573 199.48828125 167.69140625 C199.49232929 169.92492116 199.49644622 172.15843595 199.50063133 174.39195061 C199.51968313 184.88753678 199.53391316 195.38311592 199.5422433 205.87871605 C199.55201053 217.98452705 199.57831678 230.09015495 199.61874419 242.19590145 C199.64893433 251.55828618 199.66371501 260.92061851 199.66702431 270.28305095 C199.66937184 275.87200128 199.67829348 281.460756 199.70348549 287.04965401 C199.72682124 292.31183023 199.73097723 297.57368282 199.72072411 302.83589745 C199.72022995 304.76152246 199.72651485 306.68716369 199.74028015 308.61273956 C199.82967411 321.86511802 199.16093059 332.84982819 190.26904297 343.46582031 C183.71844678 350.06552617 175.05633473 354.49281065 167.01751709 359.00735474 C165.19153172 360.03283604 163.36905801 361.06432969 161.54736328 362.09741211 C159.64888576 363.17403211 157.7502564 364.250368 155.85061646 365.32493591 C149.58798715 368.86821659 143.35433734 372.46104551 137.125 376.0625 C134.9765625 377.30338542 132.828125 378.54427083 130.6796875 379.78515625 C129.61975586 380.39762207 128.55982422 381.01008789 127.46777344 381.64111328 C122.06329355 384.76324605 116.65652588 387.88141204 111.25 391 C109.0833225 392.24998122 106.91665583 393.49998121 104.75 394.75 C91.75 402.25 78.75 409.75 65.75 417.25 C64.67613037 417.86963623 63.60226074 418.48927246 62.49584961 419.12768555 C60.3433539 420.36931696 58.19052529 421.61037144 56.03735352 422.85083008 C50.99854974 425.75464461 45.96311104 428.66382253 40.93978882 431.59432983 C39.16707339 432.62812883 37.39327499 433.66004453 35.61914062 434.69140625 C33.3982208 435.98325603 31.17932931 437.27860189 28.96289062 438.578125 C19.79607588 443.90154645 11.57016319 448.55752072 0.8125 448.875 C-0.29996094 448.92398437 -1.41242188 448.97296875 -2.55859375 449.0234375 C-13.51113468 448.31830248 -23.86104606 441.47665852 -33.0625 436.0625 C-34.28922756 435.35007398 -35.51645136 434.63850184 -36.74414062 433.92773438 C-39.83695734 432.13417622 -42.92333097 430.32987666 -46.00738525 428.52130127 C-48.64175093 426.97736793 -51.27997267 425.44006362 -53.91796875 423.90234375 C-56.8361718 422.20056447 -59.75376529 420.497796 -62.66918945 418.79125977 C-70.3333312 414.30874653 -78.0357988 409.89549632 -85.75 405.5 C-94.44401781 400.54621122 -103.11491803 395.55612468 -111.75 390.5 C-119.720941 385.83456919 -127.71492713 381.21151757 -135.73568726 376.6322937 C-137.4925254 375.62926745 -139.2488396 374.62532819 -141.00512695 373.62133789 C-146.49583451 370.48477613 -151.99236893 367.35928869 -157.50466919 364.26080322 C-160.04164491 362.83375187 -162.57557785 361.40134628 -165.10925293 359.96844482 C-166.87879481 358.97060374 -168.65270771 357.98052643 -170.42675781 356.99072266 C-182.87542742 349.94579864 -193.05240618 342.92476139 -197.92149734 329.00118065 C-199.70915732 321.44668404 -199.28489714 313.64783253 -199.23583984 305.92700195 C-199.23798872 303.95808663 -199.24187088 301.98917256 -199.24734497 300.02026367 C-199.25699461 294.70017324 -199.24179104 289.38042117 -199.22143888 284.06037164 C-199.20380342 278.48142938 -199.20739419 272.90249656 -199.2081604 267.3235321 C-199.2062907 257.96001562 -199.18896929 248.59662922 -199.16162109 239.2331543 C-199.13014635 228.41705378 -199.11962607 217.60109547 -199.1210922 206.78495246 C-199.1224443 195.25118823 -199.10855862 183.71747858 -199.09019899 172.18373084 C-199.08594247 168.8671528 -199.08451749 165.55058359 -199.08372116 162.23400307 C-199.08170823 157.01939084 -199.06946549 151.80489739 -199.04938889 146.5903244 C-199.04356128 144.67957728 -199.04108361 142.76881649 -199.04224396 140.85806084 C-199.04323017 138.24483312 -199.03186764 135.63193473 -199.01742554 133.01875305 C-199.02207134 131.89184121 -199.02207134 131.89184121 -199.026811 130.74216348 C-198.96423228 123.8591918 -197.74596752 117.50174578 -194.1875 111.5 C-193.75308594 110.736875 -193.31867188 109.97375 -192.87109375 109.1875 C-186.28432243 100.84183026 -177.68811435 95.8127435 -168.5 90.75 C-167.24902927 90.04949083 -165.99871229 89.347813 -164.74902344 88.64501953 C-162.2495812 87.24094316 -159.74730758 85.84216216 -157.2421875 84.44824219 C-152.47621568 81.78937368 -147.73598747 79.08680533 -143 76.375 C-142.1644458 75.89804688 -141.3288916 75.42109375 -140.46801758 74.9296875 C-134.01783573 71.24280741 -127.6001743 67.50165042 -121.1875 63.75 C-112.44584857 58.63592825 -103.67269016 53.57940596 -94.875 48.5625 C-77.20000574 38.48186191 -59.57069035 28.32403725 -42 18.0625 C-39.10492092 16.37417188 -36.20969952 14.68608806 -33.31445312 12.99804688 C-31.01418956 11.65432855 -28.71765577 10.30448031 -26.421875 8.953125 C-25.19810553 8.23925947 -23.97416505 7.52568696 -22.75 6.8125 C-21.76 6.23113281 -20.77 5.64976563 -19.75 5.05078125 C-13.11770595 1.62236883 -7.48575312 -0.02617396 0 0 Z M-82.40673828 144.93798828 C-104.90749471 171.10299003 -110.56770009 204.98055664 -108.75 238.5 C-106.32428721 268.93356647 -94.09724029 296.39060417 -70.75 316.5 C-45.33529935 336.82067147 -11.87163163 343.23827413 19.9375 339.75 C45.27518202 336.59776215 68.05428163 325.90950211 84.0625 305.75 C94.92471354 290.47993169 99.08449772 274.0107114 100.25 255.5 C71.28799158 253.08835963 71.28799158 253.08835963 42.25 252.5 C42.03085937 253.47839844 41.81171875 254.45679688 41.5859375 255.46484375 C38.9238299 266.71810271 35.15709193 275.7352456 25.25 282.5 C14.1905243 288.34274188 2.25882522 288.41235932 -9.8046875 285.8515625 C-19.92342709 282.72707917 -27.42879979 275.47428372 -32.4453125 266.27734375 C-43.45252415 242.84582434 -45.28037569 216.04902627 -36.5 191.5625 C-31.41275079 179.61197967 -25.28247412 171.15612597 -13.3828125 165.34375 C-3.14571835 161.62117031 10.3417657 162.07253675 20.25 166.5 C29.13771486 170.78950041 35.84776049 178.21236987 39.25 187.5 C39.96721455 190.15682325 40.6113052 192.82250213 41.25 195.5 C61.59232318 196.19350925 81.89362265 196.66660344 102.25 196.5 C102.44137254 190.38205926 102.05304945 185.27644501 100.25 179.4375 C100.02924805 178.71216064 99.80849609 177.98682129 99.58105469 177.23950195 C91.77638413 152.85122661 75.37908823 133.13003117 53.25 120.5 C52.42242187 120.01015625 51.59484375 119.5203125 50.7421875 119.015625 C8.22526656 95.66734977 -50.90789437 109.93074547 -82.40673828 144.93798828 Z " fill="#223DFC" transform="translate(260.75,25.5)"/>
<path d="M0 0 C0.721875 -0.02835938 1.44375 -0.05671875 2.1875 -0.0859375 C13.44941819 -0.12531484 23.33588727 6.43541699 32.6875 12.0625 C34.80289172 13.31593774 36.91878611 14.56852748 39.03515625 15.8203125 C40.08203613 16.44196289 41.12891602 17.06361328 42.20751953 17.70410156 C46.6536694 20.32855016 51.13635255 22.88663873 55.625 25.4375 C72.86069892 35.25753369 90.03102484 45.18997673 107.1574707 55.19921875 C118.82704847 62.01447727 130.53828477 68.75749598 142.25 75.5 C141.47753906 80.28271484 141.47753906 80.28271484 139.4296875 82.23828125 C138.66914063 82.75777344 137.90859375 83.27726562 137.125 83.8125 C132.98706848 86.8087056 129.85069383 90.0211214 126.66015625 93.99609375 C126.19480469 94.49238281 125.72945313 94.98867187 125.25 95.5 C124.59 95.5 123.93 95.5 123.25 95.5 C122.9096875 96.36625 122.9096875 96.36625 122.5625 97.25 C120.90273655 100.09530878 118.82933333 101.43653334 116.25 103.5 C114.3832295 105.59207039 112.5824576 107.72574996 110.80078125 109.890625 C110.28902344 110.42171875 109.77726562 110.9528125 109.25 111.5 C108.59 111.5 107.93 111.5 107.25 111.5 C106.9096875 112.36625 106.9096875 112.36625 106.5625 113.25 C104.90273655 116.09530878 102.82933333 117.43653334 100.25 119.5 C98.3832295 121.59207039 96.5824576 123.72574996 94.80078125 125.890625 C94.28902344 126.42171875 93.77726562 126.9528125 93.25 127.5 C92.59 127.5 91.93 127.5 91.25 127.5 C90.9096875 128.36625 90.9096875 128.36625 90.5625 129.25 C88.9091307 132.08434736 86.82036056 133.46762189 84.25 135.5 C82.49207758 137.43944702 80.88102321 139.44957083 79.25 141.5 C78.280625 140.675 77.31125 139.85 76.3125 139 C75.34376953 138.17628906 75.34376953 138.17628906 74.35546875 137.3359375 C72.95898814 136.11822714 71.5858204 134.87322081 70.23828125 133.6015625 C49.89103967 114.5706859 22.97549502 108.5297927 -4.20947266 109.36816406 C-32.75955021 110.84971719 -60.43475654 122.88110876 -80.2265625 143.6015625 C-103.44658574 170.27223934 -109.61906366 204.03338263 -107.75 238.5 C-105.85607594 262.26161924 -98.09325526 285.06678361 -82.75 303.5 C-83.54019531 304.28761719 -84.33039063 305.07523437 -85.14453125 305.88671875 C-86.59564762 307.34218629 -88.03700265 308.8082621 -89.4375 310.3125 C-90.75 311.5 -90.75 311.5 -92.75 311.5 C-93.12125 312.36625 -93.12125 312.36625 -93.5 313.25 C-94.93299988 315.82939979 -96.53424676 317.56121592 -98.75 319.5 C-99.41 319.5 -100.07 319.5 -100.75 319.5 C-101.12125 320.3353125 -101.12125 320.3353125 -101.5 321.1875 C-103.95961923 325.73779558 -106.93213728 328.70842337 -111.0625 331.75 C-114.37144464 334.23305797 -116.81301134 336.65979176 -119.25 340 C-122.24504333 344.09994331 -125.53962836 346.82469347 -129.61328125 349.8125 C-132.26659835 351.90798993 -134.29727541 354.25772557 -136.41796875 356.875 C-138.36586319 359.25131697 -140.55100719 361.35739162 -142.75 363.5 C-143.678125 364.428125 -144.60625 365.35625 -145.5625 366.3125 C-146.284375 367.034375 -147.00625 367.75625 -147.75 368.5 C-151.9043047 367.23088358 -155.48587115 365.6766777 -159.234375 363.48828125 C-160.25273437 362.89466797 -161.27109375 362.30105469 -162.3203125 361.68945312 C-163.89425781 360.76036133 -163.89425781 360.76036133 -165.5 359.8125 C-166.53382813 359.21244141 -167.56765625 358.61238281 -168.6328125 357.99414062 C-181.50878561 350.4453176 -192.8298681 343.69016474 -197.9368782 328.98360252 C-199.69973199 321.43112768 -199.28485463 313.64114202 -199.23583984 305.92700195 C-199.23798872 303.95808663 -199.24187088 301.98917256 -199.24734497 300.02026367 C-199.25699461 294.70017324 -199.24179104 289.38042117 -199.22143888 284.06037164 C-199.20380342 278.48142938 -199.20739419 272.90249656 -199.2081604 267.3235321 C-199.2062907 257.96001562 -199.18896929 248.59662922 -199.16162109 239.2331543 C-199.13014635 228.41705378 -199.11962607 217.60109547 -199.1210922 206.78495246 C-199.1224443 195.25118823 -199.10855862 183.71747858 -199.09019899 172.18373084 C-199.08594247 168.8671528 -199.08451749 165.55058359 -199.08372116 162.23400307 C-199.08170823 157.01939084 -199.06946549 151.80489739 -199.04938889 146.5903244 C-199.04356128 144.67957728 -199.04108361 142.76881649 -199.04224396 140.85806084 C-199.04323017 138.24483312 -199.03186764 135.63193473 -199.01742554 133.01875305 C-199.02207134 131.89184121 -199.02207134 131.89184121 -199.026811 130.74216348 C-198.96423228 123.8591918 -197.74596752 117.50174578 -194.1875 111.5 C-193.75308594 110.736875 -193.31867188 109.97375 -192.87109375 109.1875 C-186.28432243 100.84183026 -177.68811435 95.8127435 -168.5 90.75 C-167.24902927 90.04949083 -165.99871229 89.347813 -164.74902344 88.64501953 C-162.2495812 87.24094316 -159.74730758 85.84216216 -157.2421875 84.44824219 C-152.47621568 81.78937368 -147.73598747 79.08680533 -143 76.375 C-142.1644458 75.89804688 -141.3288916 75.42109375 -140.46801758 74.9296875 C-134.01783573 71.24280741 -127.6001743 67.50165042 -121.1875 63.75 C-112.44584857 58.63592825 -103.67269016 53.57940596 -94.875 48.5625 C-77.20000574 38.48186191 -59.57069035 28.32403725 -42 18.0625 C-39.10492092 16.37417188 -36.20969952 14.68608806 -33.31445312 12.99804688 C-31.01418956 11.65432855 -28.71765577 10.30448031 -26.421875 8.953125 C-25.19810553 8.23925947 -23.97416505 7.52568696 -22.75 6.8125 C-21.76 6.23113281 -20.77 5.64976563 -19.75 5.05078125 C-13.11770595 1.62236883 -7.48575312 -0.02617396 0 0 Z " fill="#050A30" transform="translate(260.75,25.5)"/>
<path d="M0 0 C4.2482249 3.45115277 8.62430763 7.59546898 10.875 12.65234375 C10.95703125 14.58984375 10.95703125 14.58984375 9.69921875 16.3359375 C9.08304687 16.89410156 8.466875 17.45226562 7.83203125 18.02734375 C7.18234375 18.630625 6.53265625 19.23390625 5.86328125 19.85546875 C4.9196875 20.71398437 4.9196875 20.71398437 3.95703125 21.58984375 C3.09078125 22.47671875 2.22453125 23.36359375 1.33203125 24.27734375 C-1.04296875 26.58984375 -1.04296875 26.58984375 -3.41796875 28.40234375 C-6.51019772 30.97920122 -8.93960307 33.87888058 -11.4921875 36.98046875 C-12.00394531 37.5115625 -12.51570313 38.04265625 -13.04296875 38.58984375 C-13.70296875 38.58984375 -14.36296875 38.58984375 -15.04296875 38.58984375 C-15.26984375 39.16734375 -15.49671875 39.74484375 -15.73046875 40.33984375 C-17.3902322 43.18515253 -19.46363542 44.52637709 -22.04296875 46.58984375 C-23.90973925 48.68191414 -25.71051115 50.81559371 -27.4921875 52.98046875 C-28.00394531 53.5115625 -28.51570313 54.04265625 -29.04296875 54.58984375 C-29.70296875 54.58984375 -30.36296875 54.58984375 -31.04296875 54.58984375 C-31.26984375 55.16734375 -31.49671875 55.74484375 -31.73046875 56.33984375 C-33.3902322 59.18515253 -35.46363542 60.52637709 -38.04296875 62.58984375 C-39.90973925 64.68191414 -41.71051115 66.81559371 -43.4921875 68.98046875 C-44.25982422 69.77710938 -44.25982422 69.77710938 -45.04296875 70.58984375 C-45.70296875 70.58984375 -46.36296875 70.58984375 -47.04296875 70.58984375 C-47.29046875 71.14671875 -47.53796875 71.70359375 -47.79296875 72.27734375 C-50.91016385 78.04415469 -55.72235319 82.79876859 -61.04296875 86.58984375 C-62.03296875 86.58984375 -63.02296875 86.58984375 -64.04296875 86.58984375 C-64.69401026 84.23701 -65.33888997 81.88275926 -65.98046875 79.52734375 C-66.16287109 78.87056641 -66.34527344 78.21378906 -66.53320312 77.53710938 C-72.22965896 56.51200876 -69.46449614 32.91597613 -59.515625 13.62890625 C-53.86753221 3.92747628 -46.2503538 -2.63916832 -35.38671875 -5.7890625 C-23.11758 -8.06802636 -10.5557169 -7.07297528 0 0 Z " fill="#040A31" transform="translate(287.04296875,194.41015625)"/>
<path d="M0 0 C1.19592773 -0.01740234 1.19592773 -0.01740234 2.41601562 -0.03515625 C8.25138468 -0.00570948 8.25138468 -0.00570948 10.43432617 1.89990234 C10.84787354 2.38668457 11.2614209 2.8734668 11.6875 3.375 C4.8216856 5.04506296 -2.54305454 4.25010461 -9.3125 2.375 C-9.6425 3.365 -9.9725 4.355 -10.3125 5.375 C-12.23828125 6.0703125 -12.23828125 6.0703125 -14.625 6.5 C-15.40488281 6.64695312 -16.18476563 6.79390625 -16.98828125 6.9453125 C-17.75527344 7.08710937 -18.52226562 7.22890625 -19.3125 7.375 C-20.64833795 7.6981499 -21.98263726 8.02807929 -23.3125 8.375 C-22.9825 9.365 -22.6525 10.355 -22.3125 11.375 C-23.385 11.6225 -24.4575 11.87 -25.5625 12.125 C-29.32675938 13.37975313 -30.94854709 14.25458216 -33.3125 17.375 C-33.3125 18.365 -33.3125 19.355 -33.3125 20.375 C-36.2825 20.045 -39.2525 19.715 -42.3125 19.375 C-39.61807648 16.50359589 -37.02253078 14.41954595 -33.609375 12.46484375 C-32.71089844 11.94986328 -31.81242188 11.43488281 -30.88671875 10.90429688 C-29.95472656 10.37900391 -29.02273437 9.85371094 -28.0625 9.3125 C-27.14597656 8.78333984 -26.22945312 8.25417969 -25.28515625 7.70898438 C-16.68362574 2.81924128 -9.97343619 -0.14873393 0 0 Z " fill="#090E41" transform="translate(261.3125,25.625)"/>
<path d="M0 0 C4.11660618 1.25684661 7.64522142 2.78182386 11.34375 4.9765625 C12.83358398 5.85417236 12.83358398 5.85417236 14.35351562 6.74951172 C15.91102539 7.67787842 15.91102539 7.67787842 17.5 8.625 C19.64555999 9.89108832 21.79139236 11.15671519 23.9375 12.421875 C24.97390625 13.03482422 26.0103125 13.64777344 27.078125 14.27929688 C30.86700874 16.51058469 34.67746941 18.70198785 38.5 20.875 C39.5828125 21.49117187 40.665625 22.10734375 41.78125 22.7421875 C42.5134375 23.15726563 43.245625 23.57234375 44 24 C43.67 24.66 43.34 25.32 43 26 C41.03717369 25.24068034 39.07984474 24.46713808 37.125 23.6875 C35.48917969 23.04361328 35.48917969 23.04361328 33.8203125 22.38671875 C31 21 31 21 29 18 C25.70345427 16.42339117 22.35757891 15.13563338 18.94140625 13.83984375 C17.86761719 13.41832031 16.79382813 12.99679688 15.6875 12.5625 C14.66011719 12.17191406 13.63273437 11.78132813 12.57421875 11.37890625 C9.68083271 9.82903482 9.27103173 8.90606785 8 6 C7.01 5.67 6.02 5.34 5 5 C2 4 2 4 0.625 1.875 C0.41875 1.25625 0.2125 0.6375 0 0 Z " fill="#090F48" transform="translate(295,40)"/>
<path d="M0 0 C5.58261077 1.55271972 10.18474059 4.25211204 15.125 7.1875 C16.81114346 8.17978004 18.49734141 9.1719675 20.18359375 10.1640625 C21.0019873 10.6477832 21.82038086 11.13150391 22.66357422 11.62988281 C24.73486219 12.84451898 26.81661959 14.03521347 28.91015625 15.2109375 C30.53244141 16.12746094 30.53244141 16.12746094 32.1875 17.0625 C33.12980469 17.58972656 34.07210937 18.11695312 35.04296875 18.66015625 C35.68878906 19.10230469 36.33460938 19.54445313 37 20 C37 20.66 37 21.32 37 22 C28.07692308 20.79881657 28.07692308 20.79881657 26 20 C25.67 19.01 25.34 18.02 25 17 C24.01 16.67 23.02 16.34 22 16 C22 15.01 22 14.02 22 13 C20.0424015 12.49713066 18.08389623 11.9977901 16.125 11.5 C15.03445313 11.2215625 13.94390625 10.943125 12.8203125 10.65625 C10.15794931 9.92445582 10.15794931 9.92445582 8 10 C7.7525 9.38125 7.505 8.7625 7.25 8.125 C6.17856271 5.86253506 6.17856271 5.86253506 4 5 C1.50983207 3.75491604 1.01313282 2.53283204 0 0 Z " fill="#0C1249" transform="translate(354,74)"/>
<path d="M0 0 C2.475 0.495 2.475 0.495 5 1 C5.33 1.99 5.66 2.98 6 4 C9.05847848 4.54372951 11.88772805 5 15 5 C17.77346296 5.84901927 20.40428178 6.70214089 23 8 C23.99 7.01 24.98 6.02 26 5 C26 5.66 26 6.32 26 7 C26.99 7.33 27.98 7.66 29 8 C27.02 9.98 25.04 11.96 23 14 C17.52423114 12.46048671 12.97842418 9.87914994 8.125 7 C7.34125 6.54882812 6.5575 6.09765625 5.75 5.6328125 C5.01007813 5.19710938 4.27015625 4.76140625 3.5078125 4.3125 C2.83379395 3.91675781 2.15977539 3.52101563 1.46533203 3.11328125 C0.98177246 2.74589844 0.49821289 2.37851562 0 2 C0 1.34 0 0.68 0 0 Z " fill="#04093A" transform="translate(90,380)"/>
<path d="M0 0 C0.66 0.66 1.32 1.32 2 2 C5.09926819 1.67801034 5.09926819 1.67801034 8 1 C7.690625 1.721875 7.38125 2.44375 7.0625 3.1875 C5.14115729 8.27340718 4.91988593 12.72569403 5.0625 18.109375 C5 20 5 20 4 21 C1.3337397 21.08855161 -1.30647114 21.11524673 -3.97265625 21.09765625 C-4.77029892 21.0962413 -5.56794159 21.09482635 -6.38975525 21.09336853 C-8.94737435 21.08775316 -11.50490718 21.07519812 -14.0625 21.0625 C-15.79231645 21.05748698 -17.52213426 21.05292373 -19.25195312 21.04882812 C-23.50133553 21.03777875 -27.75065312 21.02050386 -32 21 C-32 20.67 -32 20.34 -32 20 C-20.45 20 -8.9 20 3 20 C1.57744897 9.98801551 1.57744897 9.98801551 0 0 Z " fill="#2D44E0" transform="translate(360,202)"/>
<path d="M0 0 C4.05281712 1.22527029 7.44360764 2.69880494 11 5 C11 7.125 11 7.125 10 10 C7.50224217 12.25484692 4.80198037 14.14265083 2 16 C2 15.01 2 14.02 2 13 C2.66 13 3.32 13 4 13 C4 11.35 4 9.7 4 8 C3.34 8 2.68 8 2 8 C1.855625 7.05125 1.71125 6.1025 1.5625 5.125 C1.17064601 2.1065506 1.17064601 2.1065506 0 0 Z " fill="#010938" transform="translate(392,96)"/>
<path d="M0 0 C0.99 0 1.98 0 3 0 C3 0.66 3 1.32 3 2 C4.32 2.33 5.64 2.66 7 3 C4.21251481 4.67373751 1.41935573 6.33776267 -1.375 8 C-2.1690625 8.47695313 -2.963125 8.95390625 -3.78125 9.4453125 C-4.92207031 10.12207031 -4.92207031 10.12207031 -6.0859375 10.8125 C-6.7876709 11.23144531 -7.4894043 11.65039062 -8.21240234 12.08203125 C-10 13 -10 13 -12 13 C-12 11.35 -12 9.7 -12 8 C-10.7625 7.979375 -9.525 7.95875 -8.25 7.9375 C-5.5415484 7.63015797 -4.39586737 7.45241985 -2.578125 5.375 C-1.34385415 3.22998537 -1.34385415 3.22998537 0 0 Z " fill="#2740E6" transform="translate(373,409)"/>
<path d="M0 0 C0.33 0.66 0.66 1.32 1 2 C-2.752768 6.45573607 -6.40322336 10.39712101 -11 14 C-11.70125 14.9075 -12.4025 15.815 -13.125 16.75 C-14.053125 17.86375 -14.053125 17.86375 -15 19 C-15.99 19 -16.98 19 -18 19 C-18.33 19.99 -18.66 20.98 -19 22 C-19.66 21.67 -20.32 21.34 -21 21 C-19.33333333 19.33333333 -17.66666667 17.66666667 -16 16 C-15.278125 15.236875 -14.55625 14.47375 -13.8125 13.6875 C-12 12 -12 12 -10 12 C-9.773125 11.46375 -9.54625 10.9275 -9.3125 10.375 C-6.94340796 6.08807155 -4.07057819 2.7137188 0 0 Z " fill="#253ADA" transform="translate(148,358)"/>
<path d="M0 0 C6.18336092 1.64473237 11.39655866 4.92553087 16.875 8.125 C17.84953125 8.68832031 18.8240625 9.25164063 19.828125 9.83203125 C22.22161962 11.21650363 24.6120838 12.60593541 27 14 C26.67 14.66 26.34 15.32 26 16 C24.03717369 15.24068034 22.07984474 14.46713808 20.125 13.6875 C19.03445313 13.25824219 17.94390625 12.82898437 16.8203125 12.38671875 C14 11 14 11 12 8 C10.18356049 6.91345399 8.3232197 5.89879909 6.4375 4.9375 C1.10655022 2.21310044 1.10655022 2.21310044 0 0 Z " fill="#141858" transform="translate(312,50)"/>
<path d="M0 0 C5.01631986 3.29643876 7.78804182 7.50697053 10 13 C10.36670008 15.51189554 10.27095015 17.45306856 10 20 C9.67 20 9.34 20 9 20 C9 18.02 9 16.04 9 14 C7.35 14.33 5.7 14.66 4 15 C4 14.34 4 13.68 4 13 C4.66 13 5.32 13 6 13 C5.02727325 11.64664105 4.0260734 10.31337396 3 9 C2.67 9 2.34 9 2 9 C2 7.35 2 5.7 2 4 C1.34 4 0.68 4 0 4 C0 2.68 0 1.36 0 0 Z " fill="#293FE3" transform="translate(448,129)"/>
<path d="M0 0 C0.5345256 1.24420647 1.05208611 2.49570936 1.5625 3.75 C1.85253906 4.44609375 2.14257812 5.1421875 2.44140625 5.859375 C3.07831803 8.30012784 2.80248831 9.6403655 2 12 C0.23537317 8.91190305 0 7.76687864 0 4 C-4.08963819 6.28538605 -7.46362104 8.95706926 -11 12 C-11.66 11.67 -12.32 11.34 -13 11 C-11.83593677 9.83593677 -10.67129061 8.67245135 -9.50390625 7.51171875 C-8.4596661 6.46205398 -7.42652024 5.40128152 -6.40234375 4.33203125 C-2.21437055 0 -2.21437055 0 0 0 Z " fill="#2839DB" transform="translate(299,209)"/>
<path d="M0 0 C0.66 0.33 1.32 0.66 2 1 C3.66194453 1.35613097 5.328451 1.69208308 7 2 C7 1.34 7 0.68 7 0 C8.32 0.33 9.64 0.66 11 1 C4.3199779 4.85167232 -1.26442661 6.81895467 -9 7 C-9 6.34 -9 5.68 -9 5 C-7.02 5 -5.04 5 -3 5 C-2.690625 4.360625 -2.38125 3.72125 -2.0625 3.0625 C-1 1 -1 1 0 0 Z " fill="#2940E2" transform="translate(278,306)"/>
<path d="M0 0 C6.27 2.97 12.54 5.94 19 9 C15.02107154 9.99473212 14.47651573 10.12020473 11 8.6875 C10.3090625 8.40648437 9.618125 8.12546875 8.90625 7.8359375 C6.8997032 6.95601739 4.92707989 6.04383494 3 5 C2.67 5.66 2.34 6.32 2 7 C2 5.35 2 3.7 2 2 C1.34 2 0.68 2 0 2 C0 1.34 0 0.68 0 0 Z " fill="#283ED5" transform="translate(199,348)"/>
<path d="M0 0 C2.97 0.495 2.97 0.495 6 1 C6 1.66 6 2.32 6 3 C7.32 3 8.64 3 10 3 C9.67 2.01 9.34 1.02 9 0 C10.32 0 11.64 0 13 0 C12.67 1.32 12.34 2.64 12 4 C13.98 4.66 15.96 5.32 18 6 C14.29632825 7.36589313 12.0677329 6.6131895 8.4375 5.25 C7.48746094 4.90453125 6.53742188 4.5590625 5.55859375 4.203125 C3.11951251 3.05619825 1.73215268 2.02959304 0 0 Z " fill="#2D41DE" transform="translate(240,306)"/>
<path d="M0 0 C1.65 1.65 3.3 3.3 5 5 C2.14723863 7.93200474 -0.65079784 10.64315404 -4 13 C-3.67 11.35 -3.34 9.7 -3 8 C-2.34 8 -1.68 8 -1 8 C-1.20625 7.4225 -1.4125 6.845 -1.625 6.25 C-2.08661261 3.48032433 -1.42944945 2.35438733 0 0 Z " fill="#040A46" transform="translate(173,324)"/>
<path d="M0 0 C0 0.99 0 1.98 0 3 C0.31421071 5.00309329 0.6451046 7.00371336 1 9 C2.32 8.34 3.64 7.68 5 7 C5 7.99 5 8.98 5 10 C4.34 10 3.68 10 3 10 C3.66 12.97 4.32 15.94 5 19 C1.3722447 14.98355664 -1.69132829 10.30106876 -3 5 C-2.23182887 2.96470546 -1.5373342 1.5373342 0 0 Z " fill="#2543D4" transform="translate(227,279)"/>
<path d="M0 0 C0.66 0.99 1.32 1.98 2 3 C0.8553125 3.86625 0.8553125 3.86625 -0.3125 4.75 C-2.66200917 6.71703093 -4.29323505 8.48476744 -6 11 C-7.32 10.67 -8.64 10.34 -10 10 C-6.92118304 6.12948725 -3.99926986 2.97088618 0 0 Z " fill="#233ADE" transform="translate(126,380)"/>
<path d="M0 0 C2.475 0.495 2.475 0.495 5 1 C5.33 1.99 5.66 2.98 6 4 C8.26225382 5.07254351 8.26225382 5.07254351 11 6 C13.00751815 6.98482022 15.00934459 7.98152514 17 9 C17 9.99 17 10.98 17 12 C14.15967798 10.38698859 11.32906084 8.75766945 8.5 7.125 C7.68917969 6.66480469 6.87835938 6.20460938 6.04296875 5.73046875 C5.27597656 5.28574219 4.50898437 4.84101563 3.71875 4.3828125 C3.00654297 3.97434082 2.29433594 3.56586914 1.56054688 3.14501953 C1.04556641 2.76716309 0.53058594 2.38930664 0 2 C0 1.34 0 0.68 0 0 Z " fill="#0E144F" transform="translate(90,380)"/>
<path d="M0 0 C0.33 0.99 0.66 1.98 1 3 C3.97 3.495 3.97 3.495 7 4 C5.390625 5.1484375 5.390625 5.1484375 3 6 C-0.015625 5.1015625 -0.015625 5.1015625 -3.25 3.625 C-4.32765625 3.14289063 -5.4053125 2.66078125 -6.515625 2.1640625 C-7.33546875 1.77992188 -8.1553125 1.39578125 -9 1 C-9 0.67 -9 0.34 -9 0 C-5.69903842 -0.8252404 -3.1967 -1.37001429 0 0 Z " fill="#2C43DD" transform="translate(248,467)"/>
<path d="M0 0 C0.66 0.33 1.32 0.66 2 1 C-0.57654415 3.57654415 -3.14830788 6.13842069 -5.8125 8.625 C-8.33873788 10.82962291 -8.33873788 10.82962291 -8 14 C-9.32 14.33 -10.64 14.66 -12 15 C-10.23188872 8.71338212 -5.3319351 3.5546234 0 0 Z " fill="#0B0E3A" transform="translate(78,125)"/>
<path d="M0 0 C0.66 0.33 1.32 0.66 2 1 C-1.48221969 3.97012856 -4.88113087 6.02637521 -9 8 C-9.9075 8.556875 -10.815 9.11375 -11.75 9.6875 C-14 11 -14 11 -16 11 C-16 10.34 -16 9.68 -16 9 C-13.38029207 7.46935061 -10.75498357 5.95030252 -8.125 4.4375 C-7.37863281 3.99986328 -6.63226563 3.56222656 -5.86328125 3.11132812 C-5.14785156 2.70205078 -4.43242187 2.29277344 -3.6953125 1.87109375 C-3.03547363 1.48880615 -2.37563477 1.10651855 -1.69580078 0.71264648 C-1.13618652 0.47747314 -0.57657227 0.2422998 0 0 Z " fill="#0C0F3E" transform="translate(180,66)"/>
<path d="M0 0 C0.33 0.99 0.66 1.98 1 3 C0.34 3.66 -0.32 4.32 -1 5 C-1.16681109 8.08347826 -1.16681109 8.08347826 -1 11 C0.32 11.33 1.64 11.66 3 12 C2.34 13.32 1.68 14.64 1 16 C-0.98 13.36 -2.96 10.72 -5 8 C-3.47524303 4.95048605 -2.07114674 2.63600494 0 0 Z " fill="#2B3CD2" transform="translate(345,160)"/>
<path d="M0 0 C0.66 1.32 1.32 2.64 2 4 C3.32 3.34 4.64 2.68 6 2 C6 2.99 6 3.98 6 5 C5.34 5 4.68 5 4 5 C3.67 5.99 3.34 6.98 3 8 C1.02 8.33 -0.96 8.66 -3 9 C-2.01 6.03 -1.02 3.06 0 0 Z " fill="#283FE5" transform="translate(354,312)"/>
<path d="M0 0 C2 0 2 0 3.5 1.1875 C5.26495414 3.32015292 6.08699059 5.40143476 7 8 C7.99 8 8.98 8 10 8 C9.67 10.31 9.34 12.62 9 15 C6.55586611 11.91730861 4.66890476 8.71528889 2.8125 5.25 C2.28269531 4.26515625 1.75289063 3.2803125 1.20703125 2.265625 C0.80871094 1.51796875 0.41039062 0.7703125 0 0 Z " fill="#2C42D7" transform="translate(347,176)"/>
<path d="M0 0 C5.31027254 1.46032495 9.46330032 3.98320986 14 7 C10.79584277 8.02866653 10.13982105 8.05483179 6.8125 6.75 C4 5 4 5 3 2 C2.01 1.67 1.02 1.34 0 1 C0 0.67 0 0.34 0 0 Z " fill="#121553" transform="translate(340,66)"/>
<path d="M0 0 C0.33 0 0.66 0 1 0 C1.34907695 3.75257718 1.27011863 5.56588078 -0.75 8.8125 C-3.05837183 11.05675039 -3.97329097 11.40864718 -7 12 C-5.85865673 9.99743426 -4.71181367 7.99800203 -3.5625 6 C-2.92441406 4.88625 -2.28632813 3.7725 -1.62890625 2.625 C-1.09136719 1.75875 -0.55382812 0.8925 0 0 Z " fill="#2B3EDA" transform="translate(350,321)"/>
<path d="M0 0 C1.32 0.33 2.64 0.66 4 1 C3.71715982 2.77226453 3.42339502 4.542788 3.125 6.3125 C2.96257812 7.29863281 2.80015625 8.28476562 2.6328125 9.30078125 C2 12 2 12 0 15 C0 10.05 0 5.1 0 0 Z " fill="#293EDB" transform="translate(299,278)"/>
<path d="M0 0 C0.66 0.33 1.32 0.66 2 1 C-0.79854744 4.29240875 -4.20673275 6.03562946 -8 8 C-8.99 8 -9.98 8 -11 8 C-11 7.34 -11 6.68 -11 6 C-9.21385682 4.96953278 -7.42089982 3.95086764 -5.625 2.9375 C-4.62726563 2.36902344 -3.62953125 1.80054687 -2.6015625 1.21484375 C-1.74304688 0.81394531 -0.88453125 0.41304688 0 0 Z " fill="#0B0E3C" transform="translate(95,115)"/>
<path d="M0 0 C0.33 0.99 0.66 1.98 1 3 C0.38125 3.061875 -0.2375 3.12375 -0.875 3.1875 C-1.926875 3.5896875 -1.926875 3.5896875 -3 4 C-3.69658363 5.65438613 -4.36096883 7.32254318 -5 9 C-7.125 10.8125 -7.125 10.8125 -9 12 C-9.66 11.67 -10.32 11.34 -11 11 C-9.92173635 9.72486237 -8.83714481 8.45507431 -7.75 7.1875 C-7.14671875 6.47980469 -6.5434375 5.77210938 -5.921875 5.04296875 C-4.07629602 3.08110329 -2.20054668 1.54330375 0 0 Z " fill="#243AD8" transform="translate(253,253)"/>
<path d="M0 0 C0.33 0.99 0.66 1.98 1 3 C0.38125 3.061875 -0.2375 3.12375 -0.875 3.1875 C-1.926875 3.5896875 -1.926875 3.5896875 -3 4 C-3.69658363 5.65438613 -4.36096883 7.32254318 -5 9 C-7.125 10.8125 -7.125 10.8125 -9 12 C-9.66 11.67 -10.32 11.34 -11 11 C-9.92173635 9.72486237 -8.83714481 8.45507431 -7.75 7.1875 C-7.14671875 6.47980469 -6.5434375 5.77210938 -5.921875 5.04296875 C-4.07629602 3.08110329 -2.20054668 1.54330375 0 0 Z " fill="#243AD8" transform="translate(269,237)"/>
<path d="M0 0 C0.33 0.99 0.66 1.98 1 3 C0.38125 3.061875 -0.2375 3.12375 -0.875 3.1875 C-1.926875 3.5896875 -1.926875 3.5896875 -3 4 C-3.69658363 5.65438613 -4.36096883 7.32254318 -5 9 C-7.125 10.8125 -7.125 10.8125 -9 12 C-9.66 11.67 -10.32 11.34 -11 11 C-9.92173635 9.72486237 -8.83714481 8.45507431 -7.75 7.1875 C-7.14671875 6.47980469 -6.5434375 5.77210938 -5.921875 5.04296875 C-4.07629602 3.08110329 -2.20054668 1.54330375 0 0 Z " fill="#243AD8" transform="translate(285,221)"/>
<path d="M0 0 C0.33 0.99 0.66 1.98 1 3 C0.38125 3.061875 -0.2375 3.12375 -0.875 3.1875 C-1.926875 3.5896875 -1.926875 3.5896875 -3 4 C-3.69658363 5.65438613 -4.36096883 7.32254318 -5 9 C-7.125 10.8125 -7.125 10.8125 -9 12 C-9.66 11.67 -10.32 11.34 -11 11 C-9.92173635 9.72486237 -8.83714481 8.45507431 -7.75 7.1875 C-7.14671875 6.47980469 -6.5434375 5.77210938 -5.921875 5.04296875 C-4.07629602 3.08110329 -2.20054668 1.54330375 0 0 Z " fill="#243AD8" transform="translate(365,141)"/>
<path d="M0 0 C4.67105792 1.55701931 8.08705685 4.08447373 12 7 C10.08984375 7.578125 10.08984375 7.578125 8 8 C6.5625 6.75 6.5625 6.75 5 5 C4.113125 4.484375 3.22625 3.96875 2.3125 3.4375 C1.549375 2.963125 0.78625 2.48875 0 2 C0 1.34 0 0.68 0 0 Z " fill="#2841D6" transform="translate(436,121)"/>
<path d="M0 0 C0.33 0.99 0.66 1.98 1 3 C0.38125 3.061875 -0.2375 3.12375 -0.875 3.1875 C-1.926875 3.5896875 -1.926875 3.5896875 -3 4 C-3.69658363 5.65438613 -4.36096883 7.32254318 -5 9 C-7.125 10.8125 -7.125 10.8125 -9 12 C-9.66 11.67 -10.32 11.34 -11 11 C-9.92173635 9.72486237 -8.83714481 8.45507431 -7.75 7.1875 C-7.14671875 6.47980469 -6.5434375 5.77210938 -5.921875 5.04296875 C-4.07629602 3.08110329 -2.20054668 1.54330375 0 0 Z " fill="#243AD8" transform="translate(381,125)"/>
<path d="M0 0 C0.33 0.66 0.66 1.32 1 2 C-0.375 4 -0.375 4 -2 6 C-2.66 6 -3.32 6 -4 6 C-4.2475 6.639375 -4.495 7.27875 -4.75 7.9375 C-6 10 -6 10 -8.078125 10.62890625 C-9.02945312 10.81259766 -9.02945312 10.81259766 -10 11 C-9.09066991 9.72390677 -8.17217147 8.45434447 -7.25 7.1875 C-6.73953125 6.47980469 -6.2290625 5.77210937 -5.703125 5.04296875 C-3.97517642 2.97022309 -2.21473524 1.52624146 0 0 Z " fill="#253AD9" transform="translate(396,110)"/>
<path d="M0 0 C0.66 0.33 1.32 0.66 2 1 C-1.07999946 4.67230705 -3.2482602 5.56802365 -8 6 C-8 6.66 -8 7.32 -8 8 C-8.99 8 -9.98 8 -11 8 C-11 7.34 -11 6.68 -11 6 C-9.21385682 4.96953278 -7.42089982 3.95086764 -5.625 2.9375 C-4.62726563 2.36902344 -3.62953125 1.80054688 -2.6015625 1.21484375 C-1.74304688 0.81394531 -0.88453125 0.41304687 0 0 Z " fill="#0B0E3B" transform="translate(201,54)"/>
<path d="M0 0 C9 0.75 9 0.75 12 4 C12 4.99 12 5.98 12 7 C7.69235185 5.43358249 3.93828536 3.31663844 0 1 C0 0.67 0 0.34 0 0 Z " fill="#2B3FDB" transform="translate(196,442)"/>
<path d="M0 0 C-3.45856848 2.94995547 -6.80021485 5.22675738 -11 7 C-11.66 6.67 -12.32 6.34 -13 6 C-12.67 5.34 -12.34 4.68 -12 4 C-11.01 4 -10.02 4 -9 4 C-9 3.34 -9 2.68 -9 2 C-5.86501708 0.14223235 -3.62528568 -0.20140476 0 0 Z " fill="#3145D6" transform="translate(290,463)"/>
<path d="M0 0 C2.64 0.33 5.28 0.66 8 1 C4.80009492 3.74277578 1.99500618 5.6302836 -2 7 C-2 6.34 -2 5.68 -2 5 C-1.34 5 -0.68 5 0 5 C0 3.35 0 1.7 0 0 Z " fill="#2B42E1" transform="translate(386,402)"/>
<path d="M0 0 C0.33 0 0.66 0 1 0 C0.6083965 5.95507399 -0.37124595 10.62819824 -3 16 C-3.33 16 -3.66 16 -4 16 C-4 14.35 -4 12.7 -4 11 C-3.34 11 -2.68 11 -2 11 C-2.04125 9.9275 -2.0825 8.855 -2.125 7.75 C-2.0114175 4.34252515 -1.78726636 2.79260369 0 0 Z " fill="#2C45D2" transform="translate(459,346)"/>
<path d="M0 0 C0.66 0.33 1.32 0.66 2 1 C0.10595266 4.34243648 -0.94091591 4.97997149 -4.6875 6.25 C-6.3271875 6.62125 -6.3271875 6.62125 -8 7 C-8.33 6.34 -8.66 5.68 -9 5 C-7.54735962 4.1361871 -6.0876837 3.28419546 -4.625 2.4375 C-3.40683594 1.72400391 -3.40683594 1.72400391 -2.1640625 0.99609375 C-1.44992188 0.66738281 -0.73578125 0.33867188 0 0 Z " fill="#0D0F3D" transform="translate(154,81)"/>
<path d="M0 0 C2.76276177 0.52268466 5.3260876 1.10869587 8 2 C5.1875 4.0625 5.1875 4.0625 2 6 C1.01 5.67 0.02 5.34 -1 5 C-0.67 3.35 -0.34 1.7 0 0 Z " fill="#2C42DF" transform="translate(316,442)"/>
<path d="M0 0 C0 3.27375077 -0.01146658 4.43147767 -2 7 C-4.65559401 7.97010475 -7.20694934 8.45940955 -10 9 C-6.83047153 5.73991357 -3.60062011 2.77762123 0 0 Z " fill="#273FD4" transform="translate(335,341)"/>
<path d="M0 0 C1.32 0 2.64 0 4 0 C4 0.66 4 1.32 4 2 C5.65 1.67 7.3 1.34 9 1 C9 1.66 9 2.32 9 3 C10.45833358 4.62514468 10.45833358 4.62514468 12 6 C8.55639368 6 7.25204608 5.20408468 4.3125 3.5 C3.50425781 3.0359375 2.69601563 2.571875 1.86328125 2.09375 C1.24839844 1.7328125 0.63351563 1.371875 0 1 C0 0.67 0 0.34 0 0 Z " fill="#2D42D8" transform="translate(170,427)"/>
<path d="M0 0 C4.05281712 1.22527029 7.44360764 2.69880494 11 5 C10.67 5.99 10.34 6.98 10 8 C10 7.34 10 6.68 10 6 C8.35 6.33 6.7 6.66 5 7 C4.731875 6.401875 4.46375 5.80375 4.1875 5.1875 C3.01506533 3.02775192 1.80630718 1.64209744 0 0 Z " fill="#0C1556" transform="translate(392,96)"/>
<path d="M0 0 C3.80635497 3.20760251 7.54563567 6.40746109 11 10 C9.02 9.34 7.04 8.68 5 8 C5 7.34 5 6.68 5 6 C4.01 6 3.02 6 2 6 C1.34 4.02 0.68 2.04 0 0 Z " fill="#2D3DD0" transform="translate(183,335)"/>
<path d="M0 0 C0.99 0.33 1.98 0.66 3 1 C1.19587357 4.26460973 0.16605307 5.88929795 -3 8 C-3.33 6.02 -3.66 4.04 -4 2 C-3.34 1.67 -2.68 1.34 -2 1 C-2 1.99 -2 2.98 -2 4 C-1.34 2.68 -0.68 1.36 0 0 Z " fill="#273DE3" transform="translate(294,296)"/>
<path d="M0 0 C3.96 1.98 7.92 3.96 12 6 C8.16380575 6.95904856 6.67568464 6.91892116 3 6 C2.67 5.01 2.34 4.02 2 3 C1.34 2.67 0.68 2.34 0 2 C0 1.34 0 0.68 0 0 Z " fill="#2F42D5" transform="translate(424,114)"/>
<path d="M0 0 C1.65 0 3.3 0 5 0 C5 0.66 5 1.32 5 2 C3.25 3.5078125 3.25 3.5078125 1 5.125 C0.2575 5.66382812 -0.485 6.20265625 -1.25 6.7578125 C-1.8275 7.16773437 -2.405 7.57765625 -3 8 C-3 7.01 -3 6.02 -3 5 C-2.34 5 -1.68 5 -1 5 C-0.67 3.35 -0.34 1.7 0 0 Z " fill="#051059" transform="translate(397,104)"/>
<path d="M0 0 C-0.33 1.32 -0.66 2.64 -1 4 C-1.66 4 -2.32 4 -3 4 C-3.33 4.66 -3.66 5.32 -4 6 C-4 5.34 -4 4.68 -4 4 C-5.65 4.66 -7.3 5.32 -9 6 C-9 5.34 -9 4.68 -9 4 C-2.25 0 -2.25 0 0 0 Z " fill="#0B0E3B" transform="translate(128,97)"/>
<path d="M0 0 C4.05281712 1.22527029 7.44360764 2.69880494 11 5 C10.67 5.66 10.34 6.32 10 7 C2.4726477 4.6892779 2.4726477 4.6892779 0.5 1.8125 C0.335 1.214375 0.17 0.61625 0 0 Z " fill="#121956" transform="translate(354,74)"/>
<path d="M0 0 C1.32 0.66 2.64 1.32 4 2 C3.09972412 3.03531726 2.17906965 4.05294165 1.25 5.0625 C0.48429687 5.91521484 0.48429687 5.91521484 -0.296875 6.78515625 C-2 8 -2 8 -4.203125 7.68359375 C-4.79609375 7.45800781 -5.3890625 7.23242188 -6 7 C-5.67 6.34 -5.34 5.68 -5 5 C-4.01 5.33 -3.02 5.66 -2 6 C-2 5.34 -2 4.68 -2 4 C-1.34 4 -0.68 4 0 4 C0 2.68 0 1.36 0 0 Z " fill="#051158" transform="translate(115,386)"/>
<path d="M0 0 C4.27878027 2.03751441 8.11282869 4.31600076 12 7 C11.67 7.66 11.34 8.32 11 9 C9.16136495 7.88368586 7.32920277 6.75670373 5.5 5.625 C4.4790625 4.99851562 3.458125 4.37203125 2.40625 3.7265625 C1.6121875 3.15679687 0.818125 2.58703125 0 2 C0 1.34 0 0.68 0 0 Z " fill="#111851" transform="translate(77,372)"/>
<path d="M0 0 C0.33 1.32 0.66 2.64 1 4 C1.99 3.67 2.98 3.34 4 3 C4.33 4.32 4.66 5.64 5 7 C3.02 6.34 1.04 5.68 -1 5 C-1 1 -1 1 0 0 Z " fill="#2A3CD1" transform="translate(115,391)"/>
<path d="M0 0 C0.99 0.66 1.98 1.32 3 2 C3.99 2 4.98 2 6 2 C4.35 3.32 2.7 4.64 1 6 C-0.32 4.35 -1.64 2.7 -3 1 C-2.01 0.67 -1.02 0.34 0 0 Z " fill="#020C48" transform="translate(338,161)"/>
<path d="M0 0 C4.05281712 1.22527029 7.44360764 2.69880494 11 5 C10.67 5.66 10.34 6.32 10 7 C5.58738468 5.79655946 2.95916118 4.52823064 0 1 C0 0.67 0 0.34 0 0 Z " fill="#151A55" transform="translate(295,40)"/>
<path d="M0 0 C4.27343092 -0.36629408 6.48812804 0.59185923 10 3 C9.67 3.66 9.34 4.32 9 5 C6.03 4.01 3.06 3.02 0 2 C0 1.34 0 0.68 0 0 Z " fill="#0B154C" transform="translate(284,35)"/>
<path d="M0 0 C2.31 0.33 4.62 0.66 7 1 C7 1.66 7 2.32 7 3 C7.66 3 8.32 3 9 3 C9.33 3.99 9.66 4.98 10 6 C6.40992874 4.66654496 3.20429093 3.1056769 0 1 C0 0.67 0 0.34 0 0 Z " fill="#3043D3" transform="translate(224,458)"/>
<path d="M0 0 C1.9375 0.3125 1.9375 0.3125 4 1 C4.33 1.99 4.66 2.98 5 4 C2.36 4 -0.28 4 -3 4 C-2.01 2.68 -1.02 1.36 0 0 Z " fill="#2B42D3" transform="translate(176,330)"/>
<path d="M0 0 C-0.66 0 -1.32 0 -2 0 C-2 1.32 -2 2.64 -2 4 C-3.98 4 -5.96 4 -8 4 C-8 3.34 -8 2.68 -8 2 C-3.61016949 -1.20338983 -3.61016949 -1.20338983 0 0 Z " fill="#0B0E39" transform="translate(106,111)"/>
<path d="M0 0 C0.66 0.33 1.32 0.66 2 1 C1.34 2.32 0.68 3.64 0 5 C-1.32 4.67 -2.64 4.34 -4 4 C-4 3.34 -4 2.68 -4 2 C-2.125 0.9375 -2.125 0.9375 0 0 Z " fill="#0B0E3D" transform="translate(161,77)"/>
<path d="M0 0 C-2.17424117 2.50037734 -3.73045798 3.43628586 -7 4 C-7 3.01 -7 2.02 -7 1 C-4.53721199 -0.231394 -2.7204945 -0.07159196 0 0 Z " fill="#2E40DE" transform="translate(338,435)"/>
<path d="M0 0 C2.64 0 5.28 0 8 0 C7.67 1.32 7.34 2.64 7 4 C4.97954558 3.39816251 2.97888961 2.72693904 1 2 C0.67 1.34 0.34 0.68 0 0 Z " fill="#2B42DA" transform="translate(120,398)"/>
<path d="M0 0 C1.32 0.33 2.64 0.66 4 1 C1.03 3.475 1.03 3.475 -2 6 C-2 4.68 -2 3.36 -2 2 C-1.34 2 -0.68 2 0 2 C0 1.34 0 0.68 0 0 Z " fill="#020F58" transform="translate(236,266)"/>
</svg>
